<mxfile host="app.diagrams.net" modified="2023-06-04T21:36:38.690Z" agent="Mozilla/5.0 (Windows NT 10.0; Win64; x64) AppleWebKit/537.36 (KHTML, like Gecko) Chrome/113.0.0.0 Safari/537.36" version="21.3.7" etag="W_EFvj7Uvt1JZQIe8GNf" type="github">
  <diagram name="PÃ¡gina-1" id="ObapEbQt_zRn0Ss7_UHw">
    <mxGraphModel>
      <root>
        <mxCell id="0" />
        <mxCell id="1" parent="0" />
      </root>
    </mxGraphModel>
  </diagram>
</mxfile>
